<svg width="208" height="18" viewBox="0 0 208 18" fill="none" xmlns="http://www.w3.org/2000/svg">
<path d="M193 18L198.597 0H202.403L208 18H204.798L203.261 12.9391H197.311L195.773 18H193ZM198.017 10.5956H202.529L200.286 3.19114L198.017 10.5956Z" fill="white"/>
<path d="M191 15.5069V18H178V16.2548L186.88 2.49308H178.247V0H190.852V1.77008L181.947 15.5069H191Z" fill="white"/>
<path d="M165.311 9.99723V18H162V0H169.378C173.028 0 175.791 1.57064 175.791 4.96122C175.791 7.42936 173.862 9.02493 172.037 9.54848L176 18H172.402L168.804 9.99723H165.311ZM168.987 2.46814H165.311V7.65374H168.987C171.229 7.65374 172.428 6.75623 172.428 5.03601C172.428 3.34072 171.229 2.46814 168.987 2.46814Z" fill="white"/>
<path d="M145 18L150.224 0H153.776L159 18H156.012L154.576 12.9391H149.024L147.588 18H145ZM149.682 10.5956H153.894L151.8 3.19114L149.682 10.5956Z" fill="white"/>
<path d="M132 0H134.854V15.5069H142V18H132V0Z" fill="white"/>
<path d="M115 18L120.224 0H123.776L129 18H126.012L124.576 12.9391H119.024L117.588 18H115ZM119.682 10.5956H123.894L121.8 3.19114L119.682 10.5956Z" fill="white"/>
<path d="M105.473 15.6113C107.516 15.6113 109.011 14.2118 109.011 11.6783V11.2681H105.349V9.07239H112V17.7105H110.181L109.609 15.2976C108.886 16.8901 107.217 18 105.174 18C100.915 18 98 14.4772 98 9.04826C98 3.57105 101.039 0 105.448 0C108.986 0 111.228 2.12332 111.925 5.52547L108.811 6.00804C108.338 3.83646 107.317 2.38874 105.423 2.38874C102.982 2.38874 101.463 4.51206 101.463 8.30027V9.72386C101.463 13.5121 102.982 15.6113 105.473 15.6113Z" fill="white"/>
<path d="M86.8126 18L78.6348 4.03878V18H76V0H79.4551L86.3403 11.867V0H89V18H86.8126Z" fill="white"/>
<path d="M58 18L63.5966 0H67.4034L73 18H69.7983L68.2605 12.9391H62.3109L60.7731 18H58ZM63.0168 10.5956H67.5294L65.2857 3.19114L63.0168 10.5956Z" fill="white"/>
<path d="M52 18V0H55V18H52Z" fill="white"/>
<path d="M40.0822 18H38.4612L34.4201 2.81718V18H32V0H36.3836L39.5342 12.3407L42.6621 0H47V18H44.1233V2.81718L40.0822 18Z" fill="white"/>
<path d="M14 18L19.5966 0H23.4034L29 18H25.7983L24.2605 12.9391H18.3109L16.7731 18H14ZM19.0168 10.5956H23.5294L21.2857 3.19114L19.0168 10.5956Z" fill="white"/>
<path d="M12 8.95014C12 14.8587 8.80292 18 4.92701 18H0V0H4.90511C8.80292 0 12 3.11634 12 8.95014ZM2.78102 15.5319H4.53285C7.40146 15.5319 9.06569 13.338 9.06569 9.54848V8.50139C9.06569 4.66205 7.40146 2.46814 4.51095 2.46814H2.78102V15.5319Z" fill="white"/>
</svg>