<svg width="21" height="21" viewBox="0 0 21 21" fill="none" xmlns="http://www.w3.org/2000/svg">
<path d="M0.0182939 7.39441C0.0190475 7.09741 0.362232 6.9075 0.647338 7.04631L5.77168 9.54131C5.91213 9.6097 6 9.74402 6 9.89033V12.3635C6 12.5161 5.90448 12.6551 5.75468 12.7204L0.61205 14.9616C0.32726 15.0857 -0.000734999 14.894 1.23719e-06 14.6038L0.0182939 7.39441Z" fill="white"/>
<path d="M4.87982 0.0345364C4.97188 -0.0119787 5.08127 -0.0114811 5.17289 0.0358698L20.8305 8.12796C20.9347 8.18184 21 8.28797 21 8.40361V13.7969V15.5278C21 15.6446 20.9335 15.7515 20.8277 15.8049L10.5952 20.9656C10.503 21.0121 10.3935 21.0114 10.3019 20.9639L3.61032 17.4919C3.37804 17.3714 3.38703 17.0418 3.62555 16.9337L8.78308 14.5953C8.88129 14.5508 8.99558 14.5583 9.08809 14.6134C9.36808 14.78 9.97029 15.1209 10.2101 15.1209C10.5274 15.1209 14.9439 12.8883 15.0497 12.6807C15.2034 12.3788 15.1819 11.0452 15.0497 10.8116C14.9175 10.5779 13.8332 10.0704 13.8332 10.0704L0.168802 2.96536C-0.0577709 2.84755 -0.0558538 2.52827 0.172118 2.41309L4.87982 0.0345364Z" fill="white"/>
</svg>